<svg width="682" height="636" viewBox="0 0 682 636" fill="none" xmlns="http://www.w3.org/2000/svg">
<path d="M134.145 349.297C19.9061 410.804 19.9089 510.528 134.152 572.035C248.394 633.543 433.616 633.543 547.855 572.035C662.094 510.528 662.091 410.804 547.848 349.297C433.606 287.789 248.384 287.789 134.145 349.297Z" fill="#F5F5F5"/>
<path d="M148.375 485.104L159.57 477.2C159.57 477.2 163.032 448.543 156.825 423.84C148.096 389.11 121.482 378.753 112.44 382.887C103.398 387.021 102.031 397.581 120.466 416.727C131.341 428.024 146.114 452.469 148.375 485.104Z" fill="#0097B2"/>
<g opacity="0.65">
<path d="M148.375 485.104L159.57 477.2C159.57 477.2 163.032 448.543 156.825 423.84C148.096 389.11 121.482 378.753 112.44 382.887C103.398 387.021 102.031 397.581 120.466 416.727C131.341 428.024 146.114 452.469 148.375 485.104Z" fill="white"/>
</g>
<path d="M151.548 470.854C151.508 470.856 151.47 470.856 151.43 470.854C150.965 470.826 150.612 470.453 150.643 470.019C152.917 436.786 135.879 401.718 118.79 388.288C118.434 388.01 118.389 387.512 118.689 387.18C118.99 386.852 119.521 386.806 119.877 387.086C137.277 400.762 154.632 436.397 152.324 470.12C152.299 470.516 151.96 470.826 151.548 470.854Z" fill="white"/>
<path d="M120.197 504.98C118.51 506.044 113.205 502.777 111.744 502.001C109.244 500.674 107.148 498.696 105.676 496.398C103.964 493.721 103.353 490.77 103.577 487.665C103.693 486.055 104.049 484.469 104.403 482.889C104.751 481.338 105.099 479.787 105.448 478.236C105.792 476.706 106.135 475.123 105.801 473.591C105.127 470.503 101.988 468.524 99.1422 466.826C95.9955 464.949 92.6727 462.414 92.3931 458.66C92.1776 455.765 93.5716 452.965 95.3162 450.561C97.0594 448.157 99.1845 445.992 100.734 443.475C101.848 441.662 102.665 439.567 102.297 437.505C102.068 436.224 101.4 435.049 100.648 433.956C99.0344 431.611 96.983 429.503 95.7963 426.945C94.6083 424.388 94.4896 421.114 96.5383 419.085C98.2188 417.42 100.881 417.02 103.334 417.003C105.602 416.987 107.883 417.785 109.94 418.673C116.589 421.545 120.792 428.351 127.771 430.433C130.464 431.237 133.345 431.255 136.123 431.738C138.901 432.223 141.782 433.329 143.231 435.593C146.086 440.057 141.92 446.085 144.057 450.884C145.949 455.131 150.617 456.485 153.474 460.233C154.724 461.873 155.137 463.838 155.117 465.85C155.08 469.256 154.746 471.776 153.301 475.658C152.108 478.867 148.374 485.104 148.374 485.104C148.374 485.104 120.456 504.816 120.197 504.98Z" fill="#0097B2"/>
<g opacity="0.3">
<path d="M120.197 504.98C118.51 506.044 113.205 502.777 111.744 502.001C109.244 500.674 107.148 498.696 105.676 496.398C103.964 493.721 103.353 490.77 103.577 487.665C103.693 486.055 104.049 484.469 104.403 482.889C104.751 481.338 105.099 479.787 105.448 478.236C105.792 476.706 106.135 475.123 105.801 473.591C105.127 470.503 101.988 468.524 99.1422 466.826C95.9955 464.949 92.6727 462.414 92.3931 458.66C92.1776 455.765 93.5716 452.965 95.3162 450.561C97.0594 448.157 99.1845 445.992 100.734 443.475C101.848 441.662 102.665 439.567 102.297 437.505C102.068 436.224 101.4 435.049 100.648 433.956C99.0344 431.611 96.983 429.503 95.7963 426.945C94.6083 424.388 94.4896 421.114 96.5383 419.085C98.2188 417.42 100.881 417.02 103.334 417.003C105.602 416.987 107.883 417.785 109.94 418.673C116.589 421.545 120.792 428.351 127.771 430.433C130.464 431.237 133.345 431.255 136.123 431.738C138.901 432.223 141.782 433.329 143.231 435.593C146.086 440.057 141.92 446.085 144.057 450.884C145.949 455.131 150.617 456.485 153.474 460.233C154.724 461.873 155.137 463.838 155.117 465.85C155.08 469.256 154.746 471.776 153.301 475.658C152.108 478.867 148.374 485.104 148.374 485.104C148.374 485.104 120.456 504.816 120.197 504.98Z" fill="white"/>
</g>
<path d="M136.526 494.462C136.515 494.463 136.504 494.463 136.504 494.463C136.052 494.477 135.684 494.154 135.669 493.744C134.654 464.208 117.206 432.723 105.641 424.022C105.298 423.765 105.244 423.297 105.521 422.976C105.799 422.657 106.299 422.608 106.642 422.865C118.44 431.739 136.234 463.744 137.265 493.696C137.279 494.097 136.95 494.434 136.526 494.462Z" fill="white"/>
<path d="M128.604 458.819C128.526 458.824 128.446 458.819 128.366 458.801C117.99 456.574 105.305 456.929 105.18 456.933C104.739 456.945 104.371 456.622 104.356 456.213C104.342 455.803 104.649 455.457 105.128 455.444C105.258 455.442 118.143 455.081 128.724 457.352C129.152 457.444 129.422 457.843 129.323 458.243C129.241 458.57 128.943 458.796 128.604 458.819Z" fill="white"/>
<path d="M534.531 485.104L523.335 477.2C523.335 477.2 519.874 448.543 526.081 423.84C534.809 389.11 561.424 378.753 570.466 382.887C579.508 387.021 580.874 397.581 562.44 416.727C551.565 428.024 536.791 452.469 534.531 485.104Z" fill="#0097B2"/>
<g opacity="0.65">
<path d="M534.531 485.104L523.335 477.2C523.335 477.2 519.874 448.543 526.081 423.84C534.809 389.11 561.424 378.753 570.466 382.887C579.508 387.021 580.874 397.581 562.44 416.727C551.565 428.024 536.791 452.469 534.531 485.104Z" fill="white"/>
</g>
<path d="M531.36 470.854C531.4 470.856 531.438 470.856 531.477 470.854C531.943 470.826 532.296 470.453 532.266 470.019C529.992 436.786 547.03 401.718 564.119 388.288C564.475 388.01 564.52 387.512 564.22 387.18C563.919 386.852 563.388 386.806 563.032 387.086C545.632 400.762 528.278 436.397 530.584 470.12C530.609 470.516 530.947 470.826 531.36 470.854Z" fill="white"/>
<path d="M562.709 504.98C564.396 506.044 569.701 502.777 571.162 502.001C573.662 500.674 575.759 498.696 577.23 496.398C578.942 493.721 579.553 490.77 579.33 487.665C579.214 486.055 578.858 484.469 578.503 482.889C578.155 481.338 577.807 479.787 577.458 478.236C577.114 476.706 576.771 475.123 577.105 473.591C577.779 470.503 580.919 468.524 583.764 466.826C586.911 464.949 590.233 462.414 590.513 458.66C590.728 455.765 589.334 452.965 587.59 450.561C585.845 448.157 583.722 445.992 582.172 443.475C581.058 441.662 580.241 439.567 580.609 437.505C580.838 436.224 581.506 435.049 582.259 433.956C583.873 431.611 585.924 429.503 587.111 426.945C588.299 424.388 588.418 421.114 586.369 419.085C584.689 417.42 582.026 417.02 579.574 417.003C577.305 416.987 575.025 417.785 572.968 418.673C566.318 421.545 562.116 428.351 555.136 430.433C552.444 431.237 549.563 431.255 546.784 431.738C544.006 432.223 541.125 433.329 539.677 435.593C536.822 440.057 540.987 446.085 538.85 450.884C536.958 455.131 532.291 456.485 529.433 460.233C528.184 461.873 527.77 463.838 527.791 465.85C527.828 469.256 528.162 471.776 529.606 475.658C530.8 478.867 534.533 485.104 534.533 485.104C534.533 485.104 562.45 504.816 562.709 504.98Z" fill="#0097B2"/>
<g opacity="0.3">
<path d="M562.709 504.98C564.396 506.044 569.701 502.777 571.162 502.001C573.662 500.674 575.759 498.696 577.23 496.398C578.942 493.721 579.553 490.77 579.33 487.665C579.214 486.055 578.858 484.469 578.503 482.889C578.155 481.338 577.807 479.787 577.458 478.236C577.114 476.706 576.771 475.123 577.105 473.591C577.779 470.503 580.919 468.524 583.764 466.826C586.911 464.949 590.233 462.414 590.513 458.66C590.728 455.765 589.334 452.965 587.59 450.561C585.845 448.157 583.722 445.992 582.172 443.475C581.058 441.662 580.241 439.567 580.609 437.505C580.838 436.224 581.506 435.049 582.259 433.956C583.873 431.611 585.924 429.503 587.111 426.945C588.299 424.388 588.418 421.114 586.369 419.085C584.689 417.42 582.026 417.02 579.574 417.003C577.305 416.987 575.025 417.785 572.968 418.673C566.318 421.545 562.116 428.351 555.136 430.433C552.444 431.237 549.563 431.255 546.784 431.738C544.006 432.223 541.125 433.329 539.677 435.593C536.822 440.057 540.987 446.085 538.85 450.884C536.958 455.131 532.291 456.485 529.433 460.233C528.184 461.873 527.77 463.838 527.791 465.85C527.828 469.256 528.162 471.776 529.606 475.658C530.8 478.867 534.533 485.104 534.533 485.104C534.533 485.104 562.45 504.816 562.709 504.98Z" fill="white"/>
</g>
<path d="M546.38 494.462C546.391 494.463 546.402 494.463 546.402 494.463C546.854 494.477 547.222 494.154 547.237 493.744C548.252 464.208 565.7 432.723 577.265 424.022C577.608 423.765 577.662 423.297 577.385 422.976C577.107 422.657 576.608 422.608 576.264 422.865C564.466 431.739 546.672 463.744 545.641 493.696C545.629 494.097 545.956 494.434 546.38 494.462Z" fill="white"/>
<path d="M554.304 458.819C554.382 458.824 554.462 458.819 554.541 458.801C564.917 456.574 577.602 456.929 577.728 456.933C578.169 456.945 578.537 456.622 578.552 456.213C578.565 455.803 578.259 455.457 577.78 455.444C577.65 455.442 564.765 455.081 554.184 457.352C553.754 457.444 553.486 457.843 553.585 458.243C553.666 458.57 553.963 458.796 554.304 458.819Z" fill="white"/>
<path d="M221.671 579.499C280.55 579.499 328.281 553.8 328.281 522.098C328.281 490.397 280.55 464.698 221.671 464.698C162.792 464.698 115.061 490.397 115.061 522.098C115.061 553.8 162.792 579.499 221.671 579.499Z" fill="#E0E0E0"/>
<path d="M461.694 579.499C520.573 579.499 568.304 553.8 568.304 522.098C568.304 490.397 520.573 464.698 461.694 464.698C402.815 464.698 355.084 490.397 355.084 522.098C355.084 553.8 402.815 579.499 461.694 579.499Z" fill="#E0E0E0"/>
<path d="M524.257 488.466C523.739 473.652 524.942 463.92 524.717 438.22C524.699 430.513 524.548 422.253 524.124 414.91C522.695 390.209 518.766 381.711 518.473 376.944C518.473 376.944 518.452 338.544 517.679 284.53C517.314 259.121 509.56 249.297 503.492 235.72H428.54C419.578 268.855 415.463 342.365 415.107 376.652C414.926 394.132 422.203 472.338 422.316 474.492C422.717 482.13 421.418 486.422 418.154 489.582C411.319 496.197 401.471 500.294 392.953 506.024C394.119 509.045 405.657 510.543 410.707 508.336C418.775 504.809 426.817 499.362 429.582 497.518C436.581 492.851 446.961 491.541 447.202 484.279C447.238 483.374 447.68 481.03 447.632 480.886C447.838 476.647 455.513 428.505 457.806 414.125C459.846 401.323 459.846 380.106 459.846 380.106L466.526 327.749C466.526 327.749 471.742 358.987 476.303 380.49C479.684 396.431 487.012 429.328 491.604 446.753C494.875 459.162 498.651 473.973 501.251 487.602C500.836 493.081 506.413 521.66 507.772 528.298C509.13 534.936 524.589 535.348 525.781 523.985C526.577 516.421 524.384 492.098 524.257 488.466Z" fill="#FFA8A7"/>
<path d="M382.405 516.328C381.978 516.332 381.379 520.737 383.724 522.585C386.43 524.718 394.346 528.187 404.739 526.833C415.133 525.48 420.736 522.425 424.865 519.134C428.994 515.844 434.781 511.204 439.479 510.192C443.843 509.252 448.572 507.359 449.957 506.084C451.343 504.811 451.088 499.208 451.088 499.208L382.405 516.328Z" fill="#263238"/>
<path d="M448.059 477.218C448.059 477.218 449.088 477.433 449.37 478.726C449.707 480.268 449.026 485.005 449.742 487.534C450.735 491.048 451.454 498.263 450.913 501.14C450.371 504.016 443.263 506.079 438.725 507.741C434.09 509.438 428.745 512.895 424.061 516.572C419.212 520.378 408.964 524.249 402.182 524.405C391.83 524.644 385.094 522.088 382.987 518.637C380.379 514.367 380.888 510.456 392.731 505.202C394.974 504.207 402.839 499.765 405.517 498.157C408.349 496.458 411.059 494.572 413.554 492.46C414.816 491.392 416.022 490.265 417.15 489.074C418.143 488.026 419.545 486.755 420.125 485.457C420.257 485.163 420.345 484.819 420.463 484.514C420.801 483.632 421.03 482.821 421.21 481.905C421.392 480.982 421.498 479.635 422.434 479.074C423.507 478.429 425.458 478.49 426.681 478.565C428.221 478.659 431.637 479.332 433.132 479.684C435.798 480.313 436.533 481.006 437.588 482.53C438.395 483.697 438.534 485.182 438.612 486.54C438.649 487.188 438.641 487.84 438.654 488.489C438.66 488.765 438.538 489.265 438.953 489.145C439.347 489.032 439.778 488.059 439.924 487.728C440.246 486.999 440.449 486.222 440.803 485.505C441.206 484.684 441.663 483.844 442.258 483.141C442.813 482.485 443.419 481.856 444.121 481.334C444.761 480.861 445.581 480.619 446.146 480.084C446.863 479.407 448.002 477.767 448.059 477.218Z" fill="#37474F"/>
<path d="M390.82 506.068C405.823 506.89 412.111 516.882 412.805 522.22C409.103 523.482 405.283 524.336 402.182 524.407C391.829 524.646 384.668 522.098 382.56 518.647C380.099 514.617 380.233 509.931 390.82 506.068Z" fill="#FAFAFA"/>
<path d="M414.768 507.402C414.932 507.401 415.094 507.349 415.23 507.243C415.541 507.002 415.581 506.572 415.323 506.282C413.21 503.918 405.685 499.417 400.241 500.022C399.839 500.065 399.551 500.406 399.6 500.78C399.647 501.154 400.001 501.421 400.413 501.378C405.494 500.827 412.524 505.282 414.2 507.157C414.344 507.32 414.555 507.404 414.768 507.402Z" fill="#F0F0F0"/>
<path d="M421.186 503.834C421.35 503.832 421.512 503.781 421.649 503.675C421.96 503.434 422.001 503.003 421.742 502.713C419.626 500.347 412.098 495.839 406.661 496.453C406.259 496.497 405.971 496.838 406.02 497.212C406.066 497.584 406.414 497.853 406.833 497.809C411.913 497.252 418.944 501.713 420.619 503.588C420.762 503.752 420.974 503.835 421.186 503.834Z" fill="#F0F0F0"/>
<path d="M427.124 499.77C427.288 499.769 427.45 499.717 427.587 499.611C427.898 499.37 427.937 498.94 427.679 498.65C425.567 496.284 418.016 491.781 412.598 492.39C412.195 492.433 411.908 492.774 411.957 493.148C412.003 493.522 412.354 493.788 412.77 493.746C417.844 493.193 424.881 497.65 426.556 499.525C426.701 499.688 426.912 499.772 427.124 499.77Z" fill="#F0F0F0"/>
<path d="M432.942 495.708C433.101 495.706 433.261 495.657 433.395 495.555C433.71 495.318 433.757 494.887 433.504 494.595C430.596 491.24 422.609 487.671 417.174 488.278C416.772 488.321 416.484 488.662 416.533 489.036C416.579 489.41 416.931 489.668 417.346 489.634C422.241 489.091 429.785 492.481 432.366 495.453C432.512 495.624 432.728 495.709 432.942 495.708Z" fill="#F0F0F0"/>
<path d="M502.828 533.378C503.123 539.978 504.144 544.365 506.585 548.27C509.025 552.175 513.736 553.463 518.548 552.404C523.362 551.346 529.553 548.413 531.027 542.747C532.502 537.08 533.371 533.195 532.391 527.063L502.828 533.378Z" fill="#263238"/>
<path d="M524.173 485.43C526.145 485.604 525.987 494.979 526.969 503.861C528.021 513.381 530.993 517.358 531.946 525.164C533.035 534.084 531.384 538.036 527.946 543.365C524.507 548.696 512.576 553.792 506.877 545.996C502.233 539.64 502.683 532.686 502.75 523.788C502.82 514.473 502.277 508.186 501.338 501.258C500.258 493.274 499.524 488.317 501.254 487.602C501.368 488.583 501.475 489.827 501.597 490.79C501.749 491.975 502.094 494.311 502.094 494.311C502.286 494.809 502.796 495.378 502.989 494.575C503.12 494.031 503.072 493.465 503.017 492.918C502.772 490.459 504.102 490.28 504.821 490.1C506.38 489.711 513.779 488.629 515.261 488.558C516.771 488.484 521.984 488.354 522.645 489.166C523.093 489.715 523.143 490.625 523.265 491.749C523.409 493.091 523.427 493.929 523.773 493.657C524.184 493.335 524.199 490.8 524.184 490.196C524.17 489.618 524.161 488.306 524.162 487.726C524.163 487.155 524.204 486 524.173 485.43Z" fill="#37474F"/>
<path d="M532.635 530.328C532.878 535.86 531.395 539.623 528.702 543.796C525.264 549.126 512.378 554.225 506.681 546.429C503.845 542.55 503.148 538.004 502.83 533.372C506.432 527.485 527.209 525.187 532.635 530.328Z" fill="#FAFAFA"/>
<path d="M507.309 523.761C507.393 523.755 507.474 523.736 507.554 523.703C507.634 523.67 516.833 520.285 525.693 522.342C526.085 522.426 526.482 522.209 526.581 521.843C526.678 521.477 526.438 521.107 526.045 521.015C516.675 518.845 507.293 522.312 506.942 522.459C506.574 522.618 506.413 523.022 506.581 523.366C506.713 523.634 507.011 523.785 507.309 523.761Z" fill="#F0F0F0"/>
<path d="M525.37 515.702C525.647 515.681 525.9 515.512 525.999 515.252C526.133 514.896 525.936 514.505 525.556 514.377C516.751 511.444 506.851 515.49 506.479 515.667C506.116 515.836 505.972 516.245 506.154 516.583C506.337 516.918 506.783 517.047 507.136 516.885C507.22 516.847 516.868 512.926 525.061 515.665C525.163 515.7 525.268 515.71 525.37 515.702Z" fill="#F0F0F0"/>
<path d="M525.168 509.443C525.44 509.421 525.689 509.257 525.791 509.004C525.935 508.649 525.744 508.254 525.366 508.123C515.686 504.721 506.278 509.164 505.929 509.355C505.58 509.546 505.462 509.964 505.667 510.288C505.872 510.614 506.329 510.725 506.668 510.533C506.746 510.489 515.837 506.236 524.848 509.399C524.955 509.437 525.063 509.45 525.168 509.443Z" fill="#F0F0F0"/>
<path d="M524.794 503.277C525.061 503.256 525.308 503.097 525.414 502.847C525.561 502.496 525.379 502.099 525.002 501.962C515.933 498.636 505.811 503.183 505.43 503.383C505.076 503.564 504.949 503.979 505.145 504.31C505.339 504.641 505.783 504.766 506.139 504.576C506.228 504.532 516.043 500.142 524.463 503.233C524.574 503.271 524.684 503.286 524.794 503.277Z" fill="#EBEBEB"/>
<path d="M508.722 235.72C517.334 250.957 521.898 265.471 522.003 310.384C522.108 355.297 520.317 368.068 520.41 373.485C520.503 378.902 525.574 390.955 525.708 417.77C525.821 440.485 525.607 457.718 525.607 457.718C525.607 457.718 522.772 463.087 511.819 463.833C501.716 464.521 494.344 460.912 494.344 460.912C494.344 460.912 481.994 423.265 478.677 407.1C474.843 388.412 467.195 343.958 467.195 343.958L461.695 380.104C461.695 380.104 462.63 394.46 460.143 411.972C456.827 435.333 452.727 453.079 452.727 453.079C452.727 453.079 443.51 455.437 434.882 455.184C426.253 454.93 419.816 451.344 419.816 451.344C419.816 451.344 414.062 401.435 413.572 368.366C413.179 341.857 415.169 274.867 418.034 235.72H508.722Z" fill="#37474F"/>
<path d="M431.14 275.658C435.232 286.671 450.692 294.576 457.519 296.213L462.903 343.982L461.696 380.103L467.196 343.957L460.506 287.681C460.506 287.683 441.521 286.124 431.14 275.658ZM496.253 271.319C497.3 275.639 498.24 279.984 499.248 284.325C500.234 288.673 501.225 293.018 502.295 297.396C502.481 292.901 502.136 288.415 501.582 283.969C501.043 279.516 500.219 275.099 499.211 270.715C498.149 266.343 496.92 261.997 495.328 257.753C493.75 253.514 491.885 249.331 489.373 245.487C490.733 249.796 491.934 254.075 493.069 258.376C494.177 262.682 495.261 266.988 496.253 271.319ZM504.48 263.159C505.981 265.776 507.404 268.424 508.838 271.077L513.07 279.174C512.847 276.117 512.063 273.124 511.025 270.235C510.001 267.335 508.654 264.552 507.162 261.847C505.619 259.166 503.934 256.56 502.01 254.106C500.103 251.646 498.018 249.301 495.628 247.205C497 249.985 498.51 252.631 500.011 255.269C501.493 257.917 503.028 260.52 504.48 263.159ZM495.484 376.325C493.218 363.838 491.673 351.225 490.146 338.603C488.669 325.974 487.201 313.332 485.545 300.704C486.144 313.413 486.9 326.112 488.021 338.794C489.112 351.475 490.546 364.153 492.775 376.748C495.174 389.312 497.596 401.778 500.181 414.27C502.726 426.756 505.449 439.215 508.346 451.652C506.502 439.05 504.486 426.47 502.293 413.918C500.14 401.372 497.816 388.798 495.484 376.325ZM431.265 331.633L434.365 295.105C432.133 307.155 430.346 319.275 428.919 331.43C427.53 343.603 426.194 355.725 425.935 368.084C426.16 380.389 426.948 392.547 427.803 404.754C428.653 416.948 429.751 429.127 431.075 441.293C430.927 429.066 430.619 416.851 430.166 404.645L429.501 386.34C429.279 380.249 428.99 374.126 428.964 368.085C428.961 362.07 429.458 355.963 429.864 349.888C430.268 343.801 430.796 337.721 431.265 331.633Z" fill="#263238"/>
<path d="M436.061 156.903C422.881 160.569 413.566 163.66 404.681 175.777C394.525 189.626 377.659 213.669 375.944 229.237C381.831 229.546 403.943 229.709 403.943 229.709L421.735 201.038L436.061 156.903Z" fill="#37474F"/>
<path d="M517.28 253.236C515.881 233.627 515.26 226.687 515.26 216.024C515.26 205.361 515.974 200.093 516.166 192.22C516.638 172.866 509.098 161.224 504.863 157.882C504.863 157.882 498.332 156.68 489.056 154.754C485.882 154.095 483.06 153.759 478.243 153.126C467.543 151.718 462.528 153.131 458.526 153.511C456.554 153.698 448.947 154.02 448.947 154.02C446.118 154.636 436.071 156.897 436.061 156.904C436.061 156.904 432.97 160.612 426.925 170.687C422.31 178.376 418.862 183.657 418.03 200.91C416.901 224.293 416.511 255.355 416.511 255.355C428.106 269.815 497.895 274.29 517.28 253.236Z" fill="#455A64"/>
<path d="M492.082 90.6325C490.069 79.0598 468.536 65.0984 444.153 76.9127C419.77 88.727 426.412 103.148 427.498 107.448C428.4 111.021 429.168 114.788 429.09 118.47C429.019 121.844 428.087 125.302 425.818 127.931C423.548 130.559 419.718 131.113 416.867 129.724C417.35 134.972 420.54 139.14 428.956 142.625C432.234 143.983 437.248 144.302 439.973 143.864C438.682 144.647 436.807 145.897 431.276 145.583C434.669 149.684 447.591 154.014 459.682 147.186C460.23 146.877 460.943 146.902 461.58 146.973C462.362 147.06 463.052 147.467 463.751 147.804C469.108 150.391 476.129 150.015 481.889 149.077C485.101 148.554 488.297 147.688 491.054 146.065C493.81 144.442 496.105 141.993 496.968 139.061C497.548 141.726 497.061 144.581 495.623 146.946C497.728 146.393 499.843 145.69 501.531 144.391C504.62 142.014 506.783 137.979 506.497 134.253C506.211 130.528 504.737 127.18 503.353 123.675C501.801 119.743 500.824 115.922 501.001 111.697C501.143 108.283 501.116 105.171 500.782 102.364C500.092 96.5994 497.376 91.4377 492.082 90.6325Z" fill="#263238"/>
<path d="M483.037 148.698C483.037 144.675 483.04 132.41 483.04 132.41C483.085 133.443 488.229 136.736 493.415 132.624C499.236 128.007 499.36 122.021 496.759 118.241C493.885 114.064 486.814 113.817 483.508 120.115C481.357 122.321 477.866 119.368 479.989 113.15C480.766 110.874 478.658 109.307 477.546 107.678C476.425 106.035 476.136 103.939 475.986 102.039C475.545 96.4674 473.762 91.5346 466.837 91.2153C463.963 91.083 461.112 91.9251 458.586 93.2098C457.331 93.8484 455.966 94.6268 454.573 94.3215C453.185 94.0175 452.335 92.7621 451.319 91.8297C449.705 90.3516 447.261 89.3544 445.057 90.1087C441.208 91.4252 439.069 95.9891 438.111 99.3994C436.535 105.011 435.602 110.803 435.383 116.601C434.831 131.244 438.912 138.012 443.314 141.355C445.774 143.224 449.093 144.314 454.991 144.245C454.991 144.245 455.157 146.059 455.265 148.757C455.363 151.223 455.082 152.629 452.63 153.218C450.983 153.613 448.62 154.086 448.62 154.086C448.62 154.086 440.41 162.333 455.71 164.18C480.097 167.126 490.914 155.135 490.914 155.135C490.914 155.135 488.18 154.524 487.363 154.293C483.979 153.337 483.037 152.722 483.037 148.698Z" fill="#FFA8A7"/>
<path d="M454.991 144.247C465.587 143.95 475.511 140.261 479.101 132.41C479.101 132.41 478.71 138.489 472.644 142.278C464.852 147.145 455.193 147.192 455.193 147.192L454.991 144.247Z" fill="#F28F8F"/>
<path d="M441.314 101.576L447.87 100.513C447.621 98.8006 445.952 97.6494 444.14 97.9432C442.332 98.2371 441.066 99.864 441.314 101.576Z" fill="#263238"/>
<path d="M469.612 103.356L463.456 100.799C464.154 99.1749 466.099 98.4308 467.8 99.1368C469.5 99.844 470.312 101.733 469.612 103.356Z" fill="#263238"/>
<path d="M447.231 109.973C447.241 111.387 446.004 112.57 444.469 112.618C442.935 112.665 441.684 111.556 441.676 110.143C441.666 108.729 442.903 107.546 444.437 107.499C445.97 107.451 447.222 108.559 447.231 109.973Z" fill="#263238"/>
<path d="M467.251 111.751C467.26 113.164 466.023 114.348 464.489 114.397C462.954 114.444 461.704 113.335 461.695 111.921C461.686 110.507 462.923 109.323 464.456 109.277C465.989 109.229 467.241 110.336 467.251 111.751Z" fill="#263238"/>
<path d="M476.549 105.846L492.565 115.42C490.797 115.092 489.624 115.066 487.301 116.136L475.766 109.344L476.549 105.846Z" fill="#455A64"/>
<path d="M432.718 106.631C433.763 108.553 433.341 111.967 434.317 114.167C435.308 118.548 443.483 121.477 448.15 117.43C448.931 116.734 449.517 115.886 449.992 115.041C451.241 112.818 451.181 109.588 452.993 109.33C457.975 109.035 452.862 120.98 466.365 121.092C472.91 121.229 474.582 115.5 475.552 110.883C475.932 109.551 477.107 109.362 477.37 107.704C477.452 105.931 476.172 105.443 474.74 105.324C470.61 104.598 464.812 103.914 461.499 104.543C457.353 105.347 455.849 106.484 453.575 106.315C451.453 106.143 450.154 104.795 446.373 103.395C442.996 102.16 437.341 101.957 433.146 102.158C431.051 102.506 431.731 105.714 432.718 106.631ZM458.405 108.095C461.44 105.235 471.108 105.686 472.997 107.811C474.035 109.073 472.988 113.169 472.278 115.082C472.187 115.312 472.083 115.541 471.966 115.783C471.034 118.365 468.043 119.45 465.138 119.278C462.987 119.152 460.883 118.333 459.717 116.898C458.651 115.681 458.228 114.279 458.053 113.315C457.692 111.361 457.566 109.093 458.405 108.095ZM440.834 104.07C448.245 105.224 451.052 107.026 448.378 113.876C447.387 117.163 442.149 118.609 438.593 116.657C435.903 115.167 435.383 112.205 435.147 110.837C434.258 105.144 434.697 103.686 440.834 104.07Z" fill="#455A64"/>
<path d="M444.622 119.513L453.078 123.978L455.455 111.5C455.194 110.722 454.904 110.1 454.545 109.845L444.622 119.513Z" fill="#F28F8F"/>
<path d="M461.308 125.182L450.718 127.802C451.435 130.623 454.387 132.326 457.313 131.603C460.237 130.879 462.025 128.003 461.308 125.182Z" fill="#B16668"/>
<path d="M460.1 126.866C460.551 126.8 460.993 126.797 461.425 126.823C461.256 129.041 459.664 131.019 457.313 131.601C456.724 131.748 456.136 131.771 455.563 131.73C455.28 129.44 457.267 127.28 460.1 126.866Z" fill="#F28F8F"/>
<path d="M504.862 157.883C520.64 162.407 522.132 169.934 522.361 175.753C522.675 183.698 516.807 200.467 512.15 213.249C503.452 237.121 495.314 246.85 486.167 246.85L479.101 213.568L487.046 190.014C487.046 190.014 494.115 163.64 504.862 157.883Z" fill="#37474F"/>
<path d="M448.078 183.25C457.334 190.776 466.586 198.066 474.88 204.407C481.934 209.799 486.924 213.474 489.632 217.823C492.339 222.172 494.062 238.59 490.835 244.47C487.608 250.349 470.627 244.429 463.979 238.311C457.331 232.194 452.242 220.899 446.772 212.708C441.303 204.518 437.288 199.07 432.591 196.769L448.078 183.25Z" fill="#FFA8A7"/>
<path d="M432.591 196.769L433.945 195.587C438.918 197.489 442.271 200.591 446.285 206.108C451.37 213.095 458.33 234.646 466.949 240.599C465.826 239.855 464.819 239.086 463.979 238.312C457.331 232.195 452.242 220.9 446.772 212.709C441.304 204.518 437.29 199.07 432.591 196.769Z" fill="#F28F8F"/>
<path d="M402.969 196.423C403.924 197.897 402.145 200.421 400.919 202.004C399.693 203.588 395.361 207.478 390.417 210.44C385.165 213.586 380.08 217.929 377.588 222.93C375.096 227.932 375.257 237.375 377.704 240.776C380.151 244.178 386.072 242.941 391.35 240.622C398.615 237.432 402.582 232.41 408.002 224.996C413.895 216.935 418.397 210.076 421.948 206.034C425.497 201.992 402.969 196.423 402.969 196.423Z" fill="#FFA8A7"/>
<path d="M400.526 232.19C403.962 227.903 413.048 208.873 410.996 205.273C408.945 201.672 403.292 199.278 401.932 200.606C402.886 199.174 403.673 197.513 402.968 196.424C402.968 196.424 425.495 201.993 421.945 206.035C418.396 210.077 413.892 216.937 407.999 224.997C402.579 232.411 398.612 237.433 391.348 240.623C391.35 240.622 397.09 236.475 400.526 232.19Z" fill="#F28F8F"/>
<path d="M396.254 193.677C399.446 193.962 402.075 195.778 404.58 197.526C407.084 199.273 415.395 204.748 420.146 205.023C424.898 205.298 404.801 188.843 396.254 193.677Z" fill="#B16668"/>
<path d="M409.65 186.076C404.727 185.182 401.196 187.171 396.689 187.474C392.182 187.777 389.56 187.361 386.424 189.119C383.288 190.876 381.993 193.245 385.882 194.308C389.77 195.372 393.486 193.527 397.27 193.763C401.054 193.999 403.58 194.495 407.81 197.721C412.041 200.947 417.923 206.631 421.417 208.725C424.912 210.819 426.982 209.23 426.982 209.23C426.982 209.23 429.29 211.749 431.404 212.474C433.519 213.199 434.57 211.34 434.406 210.171C436.293 210.343 437.912 209.425 437.473 207.253C437.034 205.082 433.353 201.107 433.353 201.107C433.353 201.107 435.544 202.831 436.709 203.632C438.879 205.125 441.102 203.499 439.793 200.539C438.483 197.579 427.465 189.117 423.415 187.773C419.366 186.428 415.564 187.607 415.564 187.607C415.564 187.607 413.068 186.697 409.65 186.076Z" fill="#FFA8A7"/>
<path d="M434.988 200.606C438.263 203.092 439.344 203.463 440.04 203.015C439.594 204.239 438.144 204.621 436.709 203.634C435.546 202.832 433.354 201.109 433.354 201.109L425.28 193.396C425.28 193.396 431.59 198.027 434.988 200.606Z" fill="#F28F8F"/>
<path d="M424.266 196.422C424.91 197.619 427.222 199.556 429.166 201.925C431.109 204.293 433.416 207.149 435.046 208.318C436.32 209.232 437.32 208.285 437.538 208.075C437.457 209.653 436.033 210.319 434.405 210.171C434.114 208.571 431.739 205.784 429.481 203.176C427.222 200.569 422.762 196.539 423.015 195.845C423.269 195.151 423.622 195.225 424.266 196.422Z" fill="#F28F8F"/>
<path d="M419.35 197.248C418.622 196.467 419.931 195.354 420.458 196.435C420.984 197.516 420.336 197.595 422.02 199.427C423.703 201.26 426.998 204.5 427.874 205.652C428.75 206.805 430.079 208.373 429.086 211.136V211.137C427.889 210.22 426.982 209.23 426.982 209.23C428.016 208.438 427.95 206.295 426.067 204.336C424.184 202.377 420.079 198.03 419.35 197.248Z" fill="#F28F8F"/>
<path d="M383.499 192.512C384.274 193.622 388.124 193.564 390.667 192.743C393.209 191.921 398.803 190.501 401.998 191.074C405.192 191.646 408.421 193.611 411.795 197.633C415.17 201.656 419.772 206.284 422.605 208.028C425.437 209.771 426.573 209.459 426.573 209.459C425.809 209.807 424.006 210.275 421.418 208.724C417.924 206.63 412.042 200.946 407.811 197.72C403.58 194.494 401.055 193.998 397.271 193.762C393.488 193.525 389.771 195.371 385.883 194.307C384.316 193.88 383.601 193.239 383.499 192.512Z" fill="#F28F8F"/>
<path d="M432.194 195.606C429.177 194.986 427.298 194.886 423.317 194.799C417.849 194.302 412.701 193.835 411.755 192.538C410.808 191.24 407.454 188.109 407.386 186.69C407.318 185.271 408.387 184.359 408.387 184.359C408.387 184.359 407.001 183.122 406.417 181.455C405.834 179.786 407.128 177.761 407.128 177.761C407.128 177.761 406.113 177.049 405.641 175.529C405.102 173.794 406.338 171.856 408.3 171.298C406.973 170.381 406.573 168.751 406.711 167.437C406.906 165.576 409.465 164.237 412.808 164.938C416.151 165.64 422.795 167.439 424.302 166.513C425.809 165.588 425.074 160.609 425.262 157.441C425.451 154.272 427.652 148.983 430.862 149.524C432.569 149.811 431.669 154.705 432.494 159.064C433.32 163.423 437.781 168.4 440.206 173.797C441.349 176.34 444.423 179.734 448.078 183.25C447.44 189.365 441.396 195.738 436.836 197.001C434.9 196.232 433.786 195.934 432.194 195.606Z" fill="#FFA8A7"/>
<path d="M424.3 166.513C425.222 165.947 425.304 163.863 425.273 161.605C425.922 163.763 428.823 166.326 427.522 167.324C426.221 168.323 421.645 166.863 418.694 166.23H418.696C421.175 166.716 423.486 167.011 424.3 166.513Z" fill="#F28F8F"/>
<path d="M406.917 172.008C407.315 171.695 407.779 171.445 408.299 171.298C408.299 171.298 411.896 172.968 415.096 174.201C410.465 173.623 408.1 172.702 406.917 172.008Z" fill="#F28F8F"/>
<path d="M407.128 177.761C408.922 178.956 412.822 180.866 412.822 180.866C412.822 180.866 408.858 179.956 406.501 179.143C406.756 178.346 407.128 177.761 407.128 177.761Z" fill="#F28F8F"/>
<path d="M408.387 184.358C409.804 185.587 413.973 188.071 413.973 188.071C413.973 188.071 409.796 186.829 407.574 185.577C407.863 184.815 408.387 184.358 408.387 184.358Z" fill="#F28F8F"/>
<path d="M408.327 188.531C409.997 190.518 412.204 192.536 418.282 193.164C423.455 193.699 428.82 193.717 433.946 195.586C434.778 195.888 436.359 196.634 436.925 196.976C436.925 196.982 436.761 197.022 436.761 197.022C431.867 195.398 428.139 195.238 423.316 194.8C417.848 194.302 412.7 193.835 411.754 192.538C411.121 191.669 409.41 189.98 408.327 188.531Z" fill="#F28F8F"/>
<path d="M423.316 194.8L418.444 194.161C416.829 193.932 415.196 193.734 413.655 193.291C412.891 193.056 412.126 192.833 411.724 192.178C411.208 191.568 410.675 190.989 410.129 190.418C409.588 189.844 409.054 189.267 408.559 188.662C408.079 188.059 407.531 187.451 407.385 186.689C407.458 187.467 407.956 188.133 408.383 188.781C408.848 189.417 409.357 190.022 409.867 190.621C410.372 191.225 410.918 191.799 411.4 192.403C411.507 192.551 411.631 192.709 411.804 192.876C411.976 193.013 412.155 193.147 412.348 193.234C412.726 193.437 413.126 193.563 413.524 193.684C415.134 194.109 416.768 194.31 418.402 194.474C420.039 194.633 421.677 194.727 423.316 194.8Z" fill="#B16668"/>
<path d="M416.636 174.057C416.951 174.26 417.185 174.532 417.647 174.947C418.014 175.275 418.463 175.533 418.929 175.732C419.15 175.826 419.539 175.923 419.778 175.958C420.011 175.992 421.092 176.047 421.244 176.07C421.431 176.098 421.646 176.149 421.795 176.261C421.84 176.294 421.822 176.388 421.773 176.414C421.481 176.561 421.127 176.602 420.799 176.625C420.443 176.649 420.105 176.76 419.749 176.751C419.22 176.737 418.73 176.626 418.269 176.382C417.838 176.153 417.52 175.75 417.238 175.376C416.834 174.841 416.752 174.558 416.624 174.076C416.624 174.071 416.627 174.051 416.636 174.057Z" fill="#F28F8F"/>
<path d="M414.487 180.599C414.802 180.802 415.035 181.074 415.499 181.489C415.866 181.818 416.315 182.075 416.781 182.274C417.002 182.368 417.391 182.465 417.631 182.5C417.864 182.535 418.946 182.589 419.097 182.611C419.284 182.639 419.499 182.69 419.648 182.802C419.693 182.835 419.675 182.929 419.626 182.954C419.334 183.102 418.98 183.143 418.652 183.165C418.296 183.19 417.958 183.3 417.602 183.291C417.073 183.277 416.583 183.167 416.121 182.923C415.691 182.694 415.372 182.29 415.09 181.918C414.686 181.382 414.604 181.098 414.476 180.618C414.474 180.611 414.479 180.593 414.487 180.599Z" fill="#F28F8F"/>
<path d="M413.897 186.246C414.213 186.45 414.446 186.722 414.908 187.137C415.275 187.466 415.724 187.723 416.19 187.923C416.411 188.017 416.8 188.114 417.039 188.149C417.272 188.184 418.354 188.238 418.505 188.261C418.692 188.289 418.907 188.34 419.056 188.452C419.101 188.485 419.083 188.579 419.034 188.605C418.742 188.752 418.388 188.793 418.06 188.816C417.704 188.84 417.366 188.951 417.01 188.942C416.481 188.928 415.991 188.817 415.529 188.573C415.099 188.344 414.78 187.941 414.498 187.568C414.094 187.032 414.012 186.75 413.884 186.268C413.885 186.259 413.888 186.24 413.897 186.246Z" fill="#F28F8F"/>
<path d="M559.831 58.3614C550.006 64.2749 543.546 73.2324 540.89 83.0624L539.952 87.7065C538.622 97.0951 540.697 106.957 546.619 115.517C559.878 134.673 587.369 140.203 607.909 127.838C617.089 122.315 623.343 114.121 626.274 105.063L627.458 100.462C629.399 90.487 627.463 79.8442 621.122 70.682C607.863 51.527 580.371 45.9963 559.831 58.3614Z" fill="white"/>
<path d="M557.79 55.4247C537.807 67.4476 530.592 91.0648 539.697 110.801L530.916 122.077C529.417 124.003 531.242 126.64 533.741 126.159L548.376 123.344C563.902 139.213 589.954 142.816 609.944 130.784C632.23 117.388 638.662 89.5626 624.28 68.7845C609.899 48.0064 580.071 42.014 557.79 55.4247ZM621.121 70.6823C627.462 79.8445 629.397 90.4873 627.456 100.462L626.272 105.063C623.341 114.121 617.087 122.314 607.907 127.838C587.367 140.203 559.877 134.672 546.617 115.516C540.695 106.956 538.62 97.0941 539.95 87.7055L540.889 83.0614C543.544 73.2314 550.004 64.274 559.829 58.3604C580.371 45.9966 607.862 51.5272 621.121 70.6823Z" fill="#455A64"/>
<path d="M608.178 80.3369C605.443 72.0549 597.939 66.9453 589.056 65.5219C584.293 64.7587 579.184 65.3642 575.047 67.7899C571.296 69.9879 567.485 74.0901 567.832 78.4811C567.877 79.042 569.472 79.7085 569.735 78.9695C570.311 77.349 570.329 76.4624 571.298 74.9983C572.264 73.5406 573.875 71.9277 575.321 70.8707C578.416 68.6091 582.652 67.9336 586.561 68.0685C594.351 68.3369 600.96 71.5385 604.397 78.219C607.723 84.6821 606.363 92.4451 601.726 98.0342C599.241 101.031 596.631 102.826 593.428 105.087C589.991 107.516 587.447 109.159 585.281 112.143C584.206 113.624 583.28 115.222 581.984 116.552C580.586 117.988 578.568 118.6 576.507 118.475C574.401 118.348 571.639 117.428 569.958 116.151C568.57 115.098 566.661 113.448 566.453 109.71C566.369 108.2 564.507 108.523 564.432 110.256C564.35 112.111 564.346 113.286 565.69 115.34C566.824 117.076 568.714 118.75 570.629 119.583C574.382 121.215 579.702 121.812 583.086 119.258C586.313 116.822 587.591 112.88 590.814 110.406C594.327 107.709 597.431 105.737 600.819 102.875C607.446 97.2723 610.867 88.4764 608.178 80.3369Z" fill="#0097B2"/>
<path d="M598.365 80.5866C598.793 80.0447 598.423 78.9979 598.214 78.4484C598.036 77.9765 597.76 77.5338 597.437 77.1306C595.002 74.107 590.358 72.8719 586.457 73.2052C581.17 73.6568 574.583 77.6012 575.043 83.1993C575.247 85.681 577.277 88.0062 579.955 88.417C582.545 88.8139 584.615 87.318 586.976 86.6769C590.504 85.7191 591.9 89.212 591.951 91.882C591.98 93.3537 591.985 95.1154 591.418 96.5095C590.887 97.8146 589.657 98.1873 588.321 98.4798C587.066 98.7546 585.749 98.953 584.624 99.5776C583.168 100.385 582.729 101.667 581.953 102.98C581.47 103.799 580.664 104.626 579.792 105.092C578.936 105.55 578.011 105.476 577.115 105.177C576.227 104.879 575.595 104.192 575.106 103.456C574.84 103.056 574.694 102.452 574.279 102.164C573.426 101.572 572.85 102.343 572.68 103.055C572.462 103.971 572.835 104.937 573.41 105.674C574.595 107.194 576.895 107.874 578.852 107.615C580.792 107.36 582.635 106.22 583.792 104.765C584.624 103.719 584.877 102.15 586.099 101.418C587.08 100.83 588.379 100.73 589.485 100.472C590.531 100.226 591.585 99.8867 592.431 99.2418C593.773 98.2191 594.203 96.6443 594.367 95.1027C594.659 92.3475 594.813 89.3125 593.033 86.9314C591.355 84.6875 588.574 83.8671 585.81 84.7066C583.716 85.3426 580.832 87.4109 578.854 85.5449C576.29 83.1255 578.409 79.5143 580.723 77.7628C583.242 75.8548 586.655 75.042 589.848 75.5533C591.309 75.7874 592.692 76.3369 593.93 77.0899C595.122 77.8149 595.75 78.7079 596.481 79.8005C596.864 80.3729 597.425 81.4516 598.281 80.6782C598.31 80.6502 598.339 80.6197 598.365 80.5866Z" fill="#0097B2"/>
<path d="M555.682 102.928C555.188 101.812 555.758 100.534 556.956 100.074L612.773 78.6404C613.971 78.1799 615.34 78.7116 615.834 79.8284C616.328 80.944 615.756 82.2223 614.56 82.6828L558.742 104.116C557.545 104.576 556.174 104.045 555.682 102.928Z" fill="#455A64"/>
<path d="M157.715 488.457C159.458 469.326 157.828 461.282 159.926 431.403C160.177 423.741 160.579 415.534 161.226 408.247C163.4 383.729 167.585 375.383 168.022 370.651C168.022 370.651 166.645 327.779 169.055 274.105C170.188 248.855 178.173 241.288 184.648 227.946L264.167 228.773C268.371 262.195 268.128 324.196 267.446 358.288C267.098 375.67 258.546 462.001 258.367 464.139C257.734 471.721 258.411 474.723 261.575 477.949C268.203 484.701 277.854 491.164 286.191 497.077C284.935 500.05 274.82 499.835 269.841 497.511C261.886 493.798 254.016 488.176 251.31 486.273C244.458 481.453 234.433 477.525 234.411 470.299C234.403 469.4 234.144 469.148 234.196 469.007C234.118 464.788 225.36 409.08 224.661 394.637C224.06 382.22 225.957 361.174 225.957 361.174L218.855 318.378C218.855 318.378 215.701 354.094 210.049 375.255C205.448 392.479 197.347 415.218 192.145 436.421C187.099 460.856 179.919 478.212 178.561 490.457C178.16 493.378 174.225 522.066 172.666 528.629C171.106 535.193 155.65 535.207 154.803 523.881C154.235 516.344 157.386 492.058 157.715 488.457Z" fill="#B16668"/>
<path d="M300.405 504.86C300.832 504.86 301.473 509.236 299.148 511.095C296.463 513.239 288.586 516.76 278.185 515.507C267.783 514.254 262.153 511.266 257.995 508.032C253.836 504.797 248.006 500.235 243.302 499.27C238.931 498.373 233.527 495.328 232.129 494.074C230.732 492.821 230.933 487.247 230.933 487.247L300.405 504.86Z" fill="#263238"/>
<path d="M234.001 466.965C234.001 466.965 233.217 466.988 232.945 468.278C232.623 469.813 232.273 474.28 231.581 476.801C230.622 480.304 230.557 486.308 231.126 489.165C231.696 492.021 239.477 495.213 244.03 496.825C248.68 498.471 254.056 501.861 258.774 505.476C263.657 509.218 273.937 512.974 280.718 513.07C291.068 513.215 297.775 510.612 299.849 507.163C302.415 502.894 300.41 500.418 288.521 495.299C286.271 494.329 278.366 489.983 275.672 488.408C272.826 486.743 270.098 484.892 267.585 482.814C266.314 481.763 265.097 480.653 263.958 479.479C262.955 478.445 261.543 477.194 260.949 475.908C260.816 475.617 260.722 475.276 260.602 474.973C260.255 474.101 260.018 473.296 259.83 472.386C259.639 471.469 259.52 470.131 258.58 469.58C257.501 468.948 255.552 469.027 254.329 469.112C252.79 469.219 251.245 469.401 249.741 469.712C247.99 470.076 245.965 470.22 244.925 471.744C244.129 472.913 244.004 474.39 243.94 475.742C243.91 476.385 243.924 477.034 243.917 477.679C243.914 477.954 244.04 478.45 243.624 478.334C243.228 478.225 242.788 477.262 242.639 476.935C242.31 476.212 242.1 475.441 241.739 474.732C241.327 473.92 240.862 473.088 240.262 472.395C239.701 471.748 237.847 471.098 237.141 470.586C236.497 470.121 235.676 469.889 235.104 469.361C234.38 468.692 234.064 467.511 234.001 466.965Z" fill="#37474F"/>
<path d="M290.439 496.142C275.452 497.093 270.723 505.676 270.08 510.99C273.792 512.212 277.619 513.026 280.719 513.069C291.069 513.214 298.202 510.617 300.276 507.166C302.695 503.139 301.058 499.888 290.439 496.142Z" fill="#FAFAFA"/>
<path d="M267.973 496.273C267.81 496.273 267.647 496.223 267.51 496.119C267.196 495.882 267.153 495.453 267.408 495.163C269.496 492.795 275.517 489.659 280.963 490.213C281.367 490.252 281.658 490.589 281.613 490.961C281.569 491.332 281.218 491.602 280.806 491.562C275.723 491.06 270.197 494.144 268.54 496.023C268.397 496.189 268.187 496.273 267.973 496.273Z" fill="#F0F0F0"/>
<path d="M261.524 492.781C261.36 492.781 261.196 492.732 261.06 492.627C260.746 492.391 260.703 491.962 260.958 491.672C263.049 489.301 269.071 486.159 274.513 486.721C274.917 486.761 275.206 487.098 275.161 487.469C275.119 487.841 274.774 488.11 274.355 488.071C269.271 487.562 263.746 490.653 262.09 492.532C261.947 492.697 261.736 492.781 261.524 492.781Z" fill="#F0F0F0"/>
<path d="M255.548 488.793C255.384 488.793 255.22 488.744 255.084 488.639C254.772 488.403 254.727 487.974 254.982 487.683C257.07 485.312 263.115 482.175 268.537 482.732C268.939 482.772 269.23 483.109 269.185 483.48C269.141 483.853 268.795 484.12 268.377 484.082C263.301 483.577 257.768 486.664 256.112 488.543C255.971 488.709 255.76 488.793 255.548 488.793Z" fill="#F0F0F0"/>
<path d="M249.694 484.806C249.535 484.806 249.373 484.757 249.239 484.658C248.922 484.425 248.871 483.998 249.122 483.704C251.996 480.342 258.485 478.13 263.924 478.685C264.327 478.724 264.619 479.061 264.574 479.433C264.531 479.804 264.181 480.065 263.767 480.034C258.869 479.538 252.819 481.567 250.268 484.547C250.123 484.719 249.909 484.806 249.694 484.806Z" fill="#F0F0F0"/>
<path d="M177.452 533.811C176.957 540.364 175.804 544.699 173.247 548.519C170.691 552.339 165.944 553.496 161.167 552.321C156.391 551.144 150.292 548.071 148.991 542.401C147.69 536.73 146.938 532.845 148.103 526.775L177.452 533.811Z" fill="#263238"/>
<path d="M157.914 486.118C155.939 486.242 155.243 495.039 153.994 503.843C152.654 513.28 149.563 517.156 148.375 524.893C147.017 533.73 148.546 537.702 151.822 543.088C155.096 548.475 166.863 553.848 172.792 546.244C177.625 540.045 177.91 533.117 177.589 524.274C177.257 515.132 178.019 508.813 178.509 501.883C178.977 495.26 180.643 488.593 178.937 487.838C178.794 488.81 178.649 490.044 178.496 490.998C178.31 492.172 178.289 493.407 177.814 494.525C177.607 495.015 177.16 495.527 176.991 494.725C176.876 494.179 176.941 493.618 177.012 493.076C177.333 490.638 176.009 490.425 175.297 490.228C173.751 489.801 167.632 489.037 166.155 488.929C164.648 488.817 159.444 488.554 158.758 489.344C158.294 489.878 158.216 490.781 158.061 491.897C157.875 493.227 157.53 494.199 157.495 493.781C157.413 492.827 157.644 490.349 157.678 489.75C157.709 489.176 157.821 488.394 157.836 487.818C157.852 487.25 157.865 486.683 157.914 486.118Z" fill="#37474F"/>
<path d="M147.761 530.015C147.351 535.507 148.719 539.286 151.282 543.503C154.556 548.89 167.276 554.291 173.206 546.687C176.156 542.903 176.991 538.402 177.449 533.807C174.029 527.861 153.339 525.042 147.761 530.015Z" fill="#FAFAFA"/>
<path d="M173.265 524.136C173.183 524.127 173.101 524.107 173.023 524.071C172.944 524.036 163.854 520.436 154.939 522.252C154.545 522.326 154.155 522.1 154.068 521.733C153.982 521.367 154.233 521.005 154.628 520.924C164.058 519.009 173.326 522.696 173.672 522.85C174.035 523.018 174.184 523.424 174.005 523.761C173.865 524.024 173.563 524.167 173.265 524.136Z" fill="#F0F0F0"/>
<path d="M155.464 515.66C155.188 515.632 154.94 515.456 154.849 515.197C154.726 514.839 154.933 514.455 155.318 514.339C164.204 511.65 173.973 515.927 174.34 516.111C174.698 516.288 174.83 516.699 174.636 517.03C174.444 517.359 173.994 517.475 173.646 517.306C173.563 517.265 164.042 513.12 155.774 515.632C155.67 515.662 155.566 515.67 155.464 515.66Z" fill="#F0F0F0"/>
<path d="M155.854 509.442C155.583 509.414 155.34 509.244 155.245 508.991C155.112 508.635 155.314 508.248 155.696 508.126C165.472 504.992 174.736 509.651 175.08 509.849C175.424 510.049 175.529 510.466 175.313 510.784C175.099 511.104 174.639 511.201 174.305 511.002C174.229 510.956 165.274 506.495 156.176 509.409C156.069 509.444 155.959 509.454 155.854 509.442Z" fill="#F0F0F0"/>
<path d="M156.416 503.324C156.149 503.296 155.908 503.131 155.811 502.881C155.673 502.529 155.868 502.14 156.25 502.011C165.412 498.937 175.388 503.718 175.762 503.926C176.11 504.114 176.224 504.532 176.018 504.856C175.815 505.18 175.366 505.292 175.017 505.095C174.93 505.048 165.256 500.433 156.749 503.288C156.637 503.324 156.525 503.336 156.416 503.324Z" fill="#EBEBEB"/>
<path d="M176.307 228.111C167.24 243.037 166.829 255.279 165.365 299.923C163.898 344.568 163.991 361.779 163.735 367.161C163.478 372.543 162.433 382.133 159.131 408.625C155.829 435.117 158.434 460.101 158.434 460.101C158.434 460.101 160.425 464.39 171.346 465.413C181.419 466.357 186.457 462.897 186.457 462.897C186.457 462.897 200.284 417.487 204.51 401.596C210.911 377.52 218.716 329.064 218.716 329.064L223.909 361.871C223.909 361.871 220.647 376.476 223.427 399.768C226.207 423.058 229.747 440.189 229.747 440.189C229.747 440.189 238.343 442.904 246.973 442.873C255.601 442.843 261.078 439.347 261.078 439.347C261.078 439.347 269.861 377.18 270.196 350.816C270.53 324.453 268.302 260.981 265.975 229.307L176.307 228.111Z" fill="#37474F"/>
<path d="M160.296 462.027C160.703 462.322 161.194 462.63 161.778 462.938C159.523 421.229 165.913 404.008 169.842 388.094C170.219 386.565 170.578 385.112 170.91 383.724C173.882 371.284 171.492 350.388 171.708 329.884C171.773 323.716 171.84 317.337 171.99 310.564C172.165 302.639 172.527 294.436 173.327 286.326C189.009 284.755 192.592 270.439 197.103 252.364C197.719 249.893 198.357 247.338 199.049 244.715L197.662 244.402C196.97 247.03 196.331 249.591 195.713 252.066C191.192 270.178 187.874 283.333 173.462 284.955C175.4 266.536 179.729 248.713 189.639 235.903L188.481 235.132C173.739 254.186 171.151 283.944 170.562 310.54C170.412 317.32 170.344 323.701 170.278 329.873C170.064 350.3 172.452 371.134 169.513 383.439C169.181 384.825 168.824 386.275 168.446 387.8C164.534 403.662 158.175 420.736 160.296 462.027ZM228.385 282.546L218.716 329.063L223.909 361.87L224.425 330.342L230.934 298.971C231.121 302.095 231.316 305.298 231.515 308.568C233.157 335.54 234.156 356.247 232.554 362.66C228.162 380.242 229.248 391.373 231.216 411.581C231.415 413.633 231.624 415.776 231.838 418.028C232.917 429.446 234.318 434.07 235.138 441.421C235.591 441.532 236.087 441.645 236.611 441.757C235.791 434.425 234.362 429.57 233.259 417.911C233.047 415.659 232.838 413.515 232.639 411.46C230.683 391.388 229.605 380.332 233.944 362.958C235.592 356.359 234.667 336.873 232.94 308.491C232.627 303.342 232.324 298.355 232.047 293.604L233.415 287.952C240.287 286.499 251.331 281.748 253.449 272.995C242.758 283.135 228.385 282.546 228.385 282.546Z" fill="#263238"/>
<path d="M245.022 142.637C253.882 144.917 259.059 145.356 270.672 157.062C291.191 177.746 305.279 188.284 310.299 195.623L281.027 210.072L245.567 176.375L245.022 142.637Z" fill="#B16668"/>
<path d="M273.418 202.842L291.885 191.244C283.921 190.545 274.179 196.654 269.633 199.243L273.418 202.842Z" fill="#9A4A4D"/>
<path d="M243.819 141.694C261.13 144.46 262.891 148.566 272.036 157.064C281.183 165.562 291.398 176.545 291.398 176.545C291.398 176.545 285.342 177.887 277.66 183.948C270.686 189.449 266.976 198.188 266.976 198.188L244.108 176.355L243.819 141.694Z" fill="#0097B2"/>
<path d="M191.728 137.947C191.728 137.947 177.686 142.636 165.279 146.814C165.279 146.814 154.23 151.56 161.667 188.851C163.542 198.253 167.36 211.942 168.402 223.562C168.994 230.167 167.945 245.859 167.004 259.465C167.004 259.465 189.644 273.265 230.126 269.051C261.91 265.743 267.846 252.285 267.846 252.285C267.846 252.285 265.79 219.321 263.139 197.272C259.331 165.609 252.546 147.901 243.82 141.695L225.717 139.891L191.728 137.947Z" fill="#455A64"/>
<path d="M181.641 108.332C184.762 118.062 188.293 122.252 189.892 124.941C191.49 127.63 194.629 128.317 194.629 128.317L193.97 116.622L193.273 108.479C193.273 108.479 200.074 102.34 200.506 96.4659C200.696 93.8838 200.438 91.7036 200.022 89.9406L241.788 91.4822C241.788 91.4822 245.336 81.5212 239.618 73.8752C234.14 66.5485 226.214 61.9718 212.248 63.0187C195.202 64.2983 186.58 72.3653 185.56 78.9734L185.573 78.9848C183.878 79.631 181.236 81.1892 179.322 84.8996C177.793 87.8608 176.792 93.2147 181.641 108.332Z" fill="#263238"/>
<path d="M183.435 119.372C183.817 119.618 184.216 119.84 184.637 120.035C185.68 120.521 186.979 120.965 188.161 120.976C189.176 120.987 190.254 120.501 191.142 120.044C192.139 119.533 193.138 118.866 193.885 118.053L191.551 139.579C199.799 154.019 237.378 157.412 224.789 142.168L225.246 134.351C225.246 134.351 227.403 134.302 230.8 133.701C236.469 132.714 241.816 128.502 243.343 122.647C245.598 113.983 243.811 95.9269 242.011 85.7954C241.503 82.9372 238.302 79.6275 235.511 78.4115C228.585 75.3943 222.398 80.1427 212.978 83.876C209.077 85.4227 199.533 86.2953 196.978 85.2408C199.357 88.0736 199.616 90.9012 199.642 92.5459C199.668 94.2822 199.274 96.6341 198.586 98.2547C197.896 99.879 197.02 101.454 196.662 103.182C196.498 103.975 196.408 104.86 195.775 105.411C194.972 106.108 193.631 105.915 192.743 105.316C191.854 104.716 191.271 103.813 190.577 103.021C189.663 101.977 188.495 101.085 187.115 100.688C184.473 99.9286 181.482 101.199 179.872 103.296C178.263 105.391 177.866 108.129 178.199 110.688C178.642 114.085 180.45 117.45 183.435 119.372Z" fill="#B16668"/>
<path d="M225.247 134.352C217.775 134.495 211.12 133.789 206.66 132.144C202.201 130.5 198.129 124.973 196.688 119.427C196.817 123.916 199.135 131.825 205.914 134.967C212.693 138.109 220.146 137.96 225.037 137.939L225.247 134.352Z" fill="#9A4A4D"/>
<path d="M214.058 92.699L208.504 96.4629C207.414 94.9479 207.774 92.8758 209.309 91.8366C210.843 90.7974 212.97 91.1828 214.058 92.699Z" fill="#263238"/>
<path d="M239.377 93.1502L232.543 92.1555C232.757 90.3543 234.461 89.1179 236.347 89.3927C238.235 89.6675 239.592 91.349 239.377 93.1502Z" fill="#263238"/>
<path d="M212.412 100.015C212.567 101.462 213.937 102.518 215.471 102.373C217.006 102.228 218.124 100.938 217.969 99.4908C217.813 98.0432 216.444 96.9875 214.909 97.1325C213.375 97.2775 212.256 98.5673 212.412 100.015Z" fill="#263238"/>
<path d="M233.114 98.1135C233.27 99.561 234.639 100.617 236.173 100.472C237.708 100.327 238.826 99.0369 238.671 97.5894C238.515 96.1418 237.146 95.0861 235.612 95.2311C234.077 95.3761 232.959 96.6659 233.114 98.1135Z" fill="#263238"/>
<path d="M223.965 95.8184L226.627 112.427L236.565 108.579C232.823 102.881 228.622 98.6282 223.965 95.8184Z" fill="#9A4A4D"/>
<path d="M165.418 147.761C147.013 155.843 148.159 170.43 154.193 186.361C159.22 199.629 161.598 203.558 169.084 218.397C174.36 228.857 184.002 237.606 192.417 236.55C200.831 235.496 206.992 226.491 203.469 214.794C199.946 203.097 185.636 175.081 185.636 175.081C185.636 175.081 176.785 151.371 165.418 147.761Z" fill="#B16668"/>
<path d="M201.048 208.098C199.044 203.104 196.367 197.194 193.802 191.758C182.163 206.159 182.739 213.336 184.52 221.501L193.364 217.366L201.048 208.098Z" fill="#9A4A4D"/>
<path d="M152.881 186.905C146.847 170.975 146.874 154.897 165.278 146.814C176.646 150.424 186.403 175.324 186.403 175.324L192.777 188.227C192.777 188.227 193.129 192.711 180.112 199.6C167.095 206.489 161.583 205.506 161.583 205.506L152.881 186.905Z" fill="#0097B2"/>
<path d="M238.513 139.371C238.346 139.098 238.162 138.831 238.043 138.537C237.85 138.055 237.846 137.528 237.793 137.016C237.664 135.759 237.196 134.479 236.202 133.624C235.77 133.253 235.258 132.977 234.766 132.679C234.598 132.578 234.429 132.471 234.303 132.324C233.921 131.878 234.058 131.234 233.957 130.671C233.737 129.442 232.261 128.648 230.934 128.792C229.336 128.965 228.335 130.06 227.526 131.233C227.46 131.327 227.392 131.428 227.286 131.477C227.172 131.531 227.039 131.519 226.912 131.513C226.314 131.477 225.703 131.56 225.143 131.758C224.604 131.949 224.112 132.26 223.734 132.667C222.87 133.599 222.644 134.89 222.453 136.109C222.135 138.126 221.959 140.152 221.63 142.177C220.988 146.14 220.925 150.252 218.922 153.873C218.736 154.209 218.433 154.59 218.035 154.527C217.669 154.469 217.502 154.076 217.42 153.737C216.573 150.209 218.537 146.336 215.336 143.413C212.552 140.871 212.537 146.208 212.224 147.616C211.804 149.509 211.383 151.402 210.963 153.295C210.267 156.429 209.566 159.614 209.837 162.805C210.092 165.818 211.207 168.736 211.305 171.755C211.405 174.841 211.122 178.886 209.237 181.397C201.296 191.974 195.736 195.904 195.736 195.904C195.736 195.904 187.005 205.088 185.325 214.182C182.975 226.896 185.884 236.439 191.329 236.547C193.866 236.598 198.232 235.606 202.615 231.895C204.777 230.065 206.464 228.317 208.689 225.68C219.306 213.689 224.822 200.116 233.058 180.678C237.666 169.804 240.447 157.149 240.849 152.184C241.028 149.991 241.059 147.591 240.684 145.418C240.338 143.416 239.588 141.139 238.513 139.371Z" fill="#B16668"/>
<path d="M208.688 225.681C217.883 215.075 223.452 202.352 228.771 189.777C232.844 180.33 236.727 170.857 238.842 160.854C239.925 155.923 240.928 150.892 240.251 145.882C239.875 143.343 239.02 141.07 237.656 138.811C237.245 137.967 237.416 137.086 237.181 136.244C236.912 135.061 236.277 134.065 235.169 133.438C234.759 133.227 234.318 132.91 233.958 132.61C233.523 132.11 233.568 131.532 233.539 131.144C233.577 129.989 232.463 129.235 231.302 129.201C229.577 129.151 228.558 130.591 227.626 131.761C227.424 131.919 227.147 131.939 227.014 131.929C225.275 131.764 223.766 132.689 223.296 134.265C222.551 136.988 222.202 141.386 221.696 144.248C221.232 147.631 220.868 151.116 219.062 154.184C218.813 154.671 217.977 155.069 217.516 154.534C216.737 153.305 216.982 151.943 216.95 150.617C217.096 148.136 217.312 145.405 215.266 143.553C214.712 142.975 213.753 142.487 213.269 143.404C212.468 144.888 212.598 146.683 212.133 148.321L210.965 153.292L212.011 148.299C212.442 146.659 212.242 144.902 213.053 143.289C213.625 142.198 214.788 142.65 215.488 143.347C218.438 145.894 217.085 149.885 217.58 153.126C217.665 153.739 217.919 154.839 218.576 153.902C220.964 149.558 220.835 143.874 221.653 139.11C222.075 135.846 222.061 130.769 227.044 131.106C227.134 131.106 227.1 131.099 227.077 131.116C227.072 131.125 227.123 131.063 227.19 130.964C228.091 129.61 229.466 128.323 231.327 128.356C232.889 128.336 234.539 129.58 234.469 131.106C234.469 131.836 234.57 132.046 235.111 132.364C236.627 133.101 237.825 134.478 238.119 136.053C238.37 136.943 238.231 137.866 238.56 138.479C240.912 142.157 241.741 146.67 241.45 150.919C240.09 164.58 235.175 177.593 229.504 190.049C224.043 202.581 218.175 215.287 208.688 225.681Z" fill="#9A4A4D"/>
<path d="M227.761 131.818C228.206 132.568 228.187 133.447 228.213 134.28C228.186 136.812 228.105 139.383 227.907 141.898C227.651 144.875 227.343 149.135 227.058 152.067C228.252 147.085 228.816 141.923 228.719 136.825C228.591 135.165 228.808 133.257 227.761 131.818ZM232.73 153.18C234.617 146.486 234.661 139.417 234.063 132.55C233.608 139.346 233.781 146.444 232.73 153.18ZM237.389 154.199C238.63 149.168 238.897 143.86 238.057 138.755C237.96 143.264 237.608 149.635 237.389 154.199Z" fill="#9A4A4D"/>
<path d="M218.396 114.272L228.986 116.893C228.268 119.714 225.317 121.417 222.391 120.694C219.466 119.97 217.678 117.094 218.396 114.272Z" fill="#9A4A4D"/>
<path d="M219.604 115.957C219.153 115.89 218.711 115.888 218.278 115.913C218.447 118.132 220.039 120.11 222.391 120.692C222.98 120.839 223.568 120.861 224.141 120.821C224.423 118.531 222.439 116.371 219.604 115.957Z" fill="#F28F8F"/>
<path d="M268.497 229.626C270.952 227.98 273.443 226.743 277.659 224.851C280.528 223.565 285.703 221.997 289.548 220.422C298.842 216.615 305.017 214.425 309.667 207.592C314.602 200.34 312.454 196.968 307.388 192.06C306.704 191.399 301.018 189.88 295.258 190.677C288.506 191.61 285.45 192.997 279.82 196.512C273.897 200.211 261.887 210.072 257.205 211.919C253.634 213.327 250.78 212.905 247.111 212.666C241.918 212.328 235.362 213.688 230.283 214.759C229.546 214.914 228.722 215.129 228.36 215.749C228.068 216.253 228.19 216.9 228.535 217.373C229.556 218.774 231.499 219.108 233.183 219.243C234.467 219.345 238.574 219.034 239.578 219.846C241.247 221.197 236.405 223.474 235.476 223.967C233.919 224.797 232.271 225.473 230.594 226.065C227.83 227.039 224.872 227.451 222.181 228.474C221.262 228.824 220.319 229.161 219.528 229.722C218.737 230.282 218.102 231.11 218.054 232.034C218.006 232.959 218.691 233.939 219.674 234.064C217.178 234.657 216.48 235.768 216.17 236.902C216.006 237.503 216.266 238.331 216.748 238.776C217.268 239.254 218.733 239.384 219.421 239.422C218.865 240.371 218.895 241.49 219.347 242.218C219.718 242.815 220.583 243.192 221.258 243.402C221.955 243.618 223.465 243.638 224.199 243.659C224.56 245.069 226.01 245.566 227.022 245.707C228.382 245.898 229.6 245.819 230.814 245.725C235.539 245.359 238.899 244.223 243.338 242.798C248.822 241.039 255.347 237.997 260.248 235.059C263.579 233.065 266.398 231.035 268.497 229.626Z" fill="#B16668"/>
<path d="M243.81 237.84C237.224 240.441 231.238 242.694 224.2 243.661C231.328 243.622 237.623 241.29 243.81 237.84Z" fill="#9A4A4D"/>
<path d="M219.846 234.32C220.908 234.573 221.954 234.366 223.007 234.29C229.176 233.466 235.209 231.407 240.63 228.333C234.92 230.698 229.022 232.707 222.933 233.768C221.153 234.141 218.207 234.525 218.076 231.873C217.903 232.962 218.766 234.075 219.846 234.32Z" fill="#9A4A4D"/>
<path d="M231.173 237.862C235.023 236.58 238.87 235.116 242.269 232.86C234.955 236.045 227.213 239.265 219.112 239.444C223.199 240.101 227.302 238.977 231.173 237.862Z" fill="#9A4A4D"/>
<path d="M120.486 58.3614C130.311 64.2749 136.77 73.2324 139.426 83.0624L140.365 87.7065C141.696 97.0951 139.621 106.957 133.697 115.517C120.438 134.673 92.9478 140.203 72.4073 127.838C63.2276 122.315 56.9737 114.121 54.0424 105.063L52.8585 100.462C50.9175 90.487 52.853 79.8442 59.1943 70.682C72.4537 51.527 99.9451 45.9963 120.486 58.3614Z" fill="white"/>
<path d="M56.037 68.7845C41.655 89.5626 48.0862 117.388 70.3726 130.784C90.3634 142.817 116.416 139.214 131.942 123.344L146.577 126.159C149.075 126.64 150.9 124.002 149.401 122.077L140.621 110.801C149.727 91.0661 142.511 67.4476 122.528 55.4247C100.246 42.014 70.4176 48.0064 56.037 68.7845ZM120.486 58.3617C130.311 64.2752 136.771 73.2327 139.426 83.0627L140.365 87.7067C141.696 97.0954 139.622 106.957 133.698 115.518C120.438 134.673 92.9482 140.203 72.4077 127.84C63.228 122.317 56.9741 114.122 54.0428 105.064L52.8589 100.464C50.9179 90.4886 52.8534 79.8458 59.1947 70.6836C72.4541 51.5272 99.9455 45.9966 120.486 58.3617Z" fill="#455A64"/>
<path d="M78.2281 107.136L67.9108 109.335C67.2015 109.486 66.4963 109.073 66.334 108.411L62.5325 92.9031C62.3702 92.2417 62.8135 91.584 63.5228 91.4327L73.8401 89.2334C74.5494 89.082 75.2545 89.4954 75.4169 90.1569L79.2183 105.665C79.3806 106.327 78.9373 106.985 78.2281 107.136Z" fill="#0097B2"/>
<path d="M99.3796 115.702L76.7331 107.455L72.3438 89.5525L88.8973 72.9478C90.8969 70.9418 94.4883 71.8399 95.143 74.5098L104.276 111.764C104.931 114.434 102.116 116.698 99.3796 115.702Z" fill="#0097B2"/>
<path d="M115.172 89.8374C113.921 84.738 109.768 80.9601 104.714 79.6767C103.688 79.4159 102.607 79.8904 102.157 80.7871L102.151 80.7973C101.582 81.9281 102.228 83.2828 103.522 83.6046C107.102 84.4925 110.032 87.1611 110.912 90.7456C111.793 94.3403 110.392 97.9299 107.584 100.171C106.561 100.988 106.61 102.475 107.658 103.263L107.667 103.271C108.491 103.892 109.683 103.878 110.482 103.23C114.439 100.027 116.423 94.9394 115.172 89.8374Z" fill="#0097B2"/>
<path d="M123.863 87.985C122.005 80.4051 116.118 74.6366 108.784 72.1804C107.705 71.8191 106.505 72.244 106.014 73.2094L106.004 73.2273C105.446 74.3237 106.042 75.6072 107.27 76.0117C113.269 77.9896 118.084 82.696 119.603 88.8932C121.123 95.0917 118.981 101.299 114.499 105.514C113.584 106.376 113.644 107.771 114.656 108.533C115.547 109.203 116.824 109.101 117.628 108.343C123.098 103.185 125.726 95.5826 123.863 87.985Z" fill="#0097B2"/>
<path d="M76.8627 119.81C75.8738 119.231 75.5765 118.015 76.1971 117.093L111.519 64.5729C112.14 63.6507 113.445 63.3721 114.433 63.9522C115.422 64.5309 115.72 65.7469 115.098 66.6691L79.7776 119.189C79.157 120.111 77.8516 120.388 76.8627 119.81Z" fill="#455A64"/>
</svg>
