<svg width="199" height="210" viewBox="0 0 199 210" fill="none" xmlns="http://www.w3.org/2000/svg">
<path d="M50.3571 134.551C63.9436 138.831 88.6963 140.482 97.0684 151.684V88.5625C88.6966 77.3611 63.9436 75.7098 50.3571 71.4296V134.551ZM50.3571 60.0111V59.092C63.9436 63.3722 88.6963 65.0235 97.0684 76.2249L99.5 76.9735L101.932 76.1329C110.303 64.9315 135.056 63.2802 148.643 59V59.9191C152.416 61.1345 154.786 62.1916 154.786 62.1916V72.0462L164 68.2824V147.598C164 147.598 109.226 151.704 99.5 169.908L99.4997 170C89.7737 151.796 35 147.69 35 147.69V68.3744L44.2143 72.1382V62.2836C44.2143 62.2836 46.5836 61.2265 50.3571 60.0111ZM54.9643 126.36V116.105C66.5405 118.926 82.4855 120.817 91.8214 127.16V137.414C82.4855 131.071 66.5405 129.18 54.9643 126.36ZM54.9643 108.671V98.4171C66.5405 101.237 82.4855 103.128 91.8214 109.471V119.725C82.4855 113.382 66.5405 111.492 54.9643 108.671ZM54.9643 90.6477V80.3937C66.5405 83.2141 82.4855 85.1048 91.8214 91.4479V101.702C82.4855 95.3589 66.5405 93.4681 54.9643 90.6477ZM148.643 134.459V71.3376C135.056 75.6178 110.303 77.2691 101.932 88.4705V151.592C110.304 140.39 135.056 138.739 148.643 134.459ZM144.036 126.268C132.459 129.088 116.514 130.979 107.179 137.322V127.068C116.514 120.725 132.459 118.834 144.036 116.013V126.268ZM144.036 108.579C132.459 111.4 116.514 113.29 107.179 119.633V109.379C116.514 103.036 132.459 101.146 144.036 98.3251V108.579ZM144.036 90.5558C132.459 93.3762 116.514 95.2669 107.179 101.61V91.356C116.514 85.0129 132.459 83.1221 144.036 80.3017V90.5558Z" fill="white"/>
</svg>
