<svg width="151" height="158" viewBox="0 0 151 158" fill="none" xmlns="http://www.w3.org/2000/svg">
<path d="M47.7083 59.8067C41.0133 52.8014 51.2488 42.9347 56.6833 48.6212L90.8874 84.4108L83.6362 76.8235C81.2009 70.5531 81.9398 60.5331 88.3883 60.5331C98.8954 71.5272 106.158 80.1367 110.783 84.8302C123.841 98.4939 123.841 120.647 110.783 134.311C97.7245 147.975 76.8356 148.044 63.7772 134.38L27.6238 96.5507C21.5555 90.2011 30.0966 81.5945 34.8022 86.5181L55.4795 108.557L37.4975 89.3909L28.0435 79.3144C20.1812 71.0877 31.2218 62.4745 36.4454 67.9402C25.9683 56.9774 37.5248 49.1511 43.376 55.2734L71.4597 84.659" stroke="white" stroke-width="2" stroke-miterlimit="10" stroke-linecap="round" stroke-linejoin="round"/>
<path d="M42.7002 40.249L43.2895 44.264" stroke="white" stroke-width="2" stroke-miterlimit="10" stroke-linecap="round" stroke-linejoin="round"/>
<path d="M32.3133 28.3308L29.4873 14.5352" stroke="white" stroke-width="2" stroke-miterlimit="10" stroke-linecap="round" stroke-linejoin="round"/>
<path d="M26.2292 40.6084L13.8252 46.1408" stroke="white" stroke-width="2" stroke-miterlimit="10" stroke-linecap="round" stroke-linejoin="round"/>
<path d="M28.6322 34.0588L19.3232 29.0078" stroke="white" stroke-width="2" stroke-miterlimit="10" stroke-linecap="round" stroke-linejoin="round"/>
<path d="M114.365 31.8132L113.816 17.7158" stroke="white" stroke-width="2" stroke-miterlimit="10" stroke-linecap="round" stroke-linejoin="round"/>
<path d="M123.182 42.1172L136.512 44.2405" stroke="white" stroke-width="2" stroke-miterlimit="10" stroke-linecap="round" stroke-linejoin="round"/>
<path d="M119.295 36.4009L127.107 29.082" stroke="white" stroke-width="2" stroke-miterlimit="10" stroke-linecap="round" stroke-linejoin="round"/>
<path d="M62.7427 95.9915L35.3066 66.749" stroke="white" stroke-width="2" stroke-miterlimit="10" stroke-linecap="round" stroke-linejoin="round"/>
<path d="M71.4597 84.659L43.376 55.2734" stroke="white" stroke-width="2" stroke-miterlimit="10" stroke-linecap="round" stroke-linejoin="round"/>
<path d="M27.6241 96.5505C21.5558 90.2009 30.097 81.5942 34.8025 86.5179L55.4798 108.557" stroke="white" stroke-width="2" stroke-miterlimit="10" stroke-linecap="round" stroke-linejoin="round"/>
<path d="M28.0435 79.3141C20.1812 71.0873 31.2218 62.4741 36.4454 67.9398" stroke="white" stroke-width="2" stroke-miterlimit="10" stroke-linecap="round" stroke-linejoin="round"/>
<path d="M43.3761 55.2735C37.5249 49.151 25.9684 56.9772 36.4455 67.9402" stroke="white" stroke-width="2" stroke-miterlimit="10" stroke-linecap="round" stroke-linejoin="round"/>
<path d="M110.782 84.8303C106.158 80.1366 98.8949 71.5271 88.3879 60.5332C81.9393 60.5332 81.2005 70.5532 83.6358 76.8236L90.8869 84.4109L56.6831 48.6213C51.2484 42.9346 41.0131 52.8015 47.708 59.8068" stroke="white" stroke-width="2" stroke-miterlimit="10" stroke-linecap="round" stroke-linejoin="round"/>
<path d="M28.043 79.3145L37.497 89.3911" stroke="white" stroke-width="2" stroke-miterlimit="10" stroke-linecap="round" stroke-linejoin="round"/>
<path d="M110.783 84.8301C123.841 98.4938 123.841 120.647 110.783 134.311C97.7247 147.975 76.8357 148.044 63.7773 134.38" stroke="white" stroke-width="2" stroke-miterlimit="10" stroke-linecap="round" stroke-linejoin="round"/>
<path d="M27.624 96.5508L63.7772 134.38" stroke="white" stroke-width="2" stroke-miterlimit="10" stroke-linecap="round" stroke-linejoin="round"/>
<path d="M70.0209 52.0223L65.7432 20.9775" stroke="white" stroke-width="2" stroke-miterlimit="10" stroke-linecap="round" stroke-linejoin="round"/>
<path d="M84.0538 54.0239L78.7363 16.7188" stroke="white" stroke-width="2" stroke-miterlimit="10" stroke-linecap="round" stroke-linejoin="round"/>
<path d="M42.7003 40.249C41.3973 31.3734 53.1493 29.7208 54.1598 36.6032L54.6243 40.3381" stroke="white" stroke-width="2" stroke-miterlimit="10" stroke-linecap="round" stroke-linejoin="round"/>
<path d="M52.7829 26.6117C51.0946 15.1122 64.8658 15.0016 65.9874 22.6415" stroke="white" stroke-width="2" stroke-miterlimit="10" stroke-linecap="round" stroke-linejoin="round"/>
<path d="M78.7356 16.7191C77.4792 8.16094 63.7369 7.31783 65.9866 22.6421" stroke="white" stroke-width="2" stroke-miterlimit="10" stroke-linecap="round" stroke-linejoin="round"/>
<path d="M116.049 80.2211C114.974 73.5743 114.31 64.1887 112.054 48.821C106.855 44.8295 100.595 52.451 99.0132 59.014L93.2262 19.5925C92.0593 11.6436 78.2287 13.2635 79.6661 23.0556" stroke="white" stroke-width="2" stroke-miterlimit="10" stroke-linecap="round" stroke-linejoin="round"/>
<path d="M52.7822 26.6123L54.4103 38.5606" stroke="white" stroke-width="2" stroke-miterlimit="10" stroke-linecap="round" stroke-linejoin="round"/>
<path d="M42.7002 40.249L43.2895 44.264" stroke="white" stroke-width="2" stroke-miterlimit="10" stroke-linecap="round" stroke-linejoin="round"/>
<path d="M32.3133 28.3308L29.4873 14.5352" stroke="white" stroke-width="2" stroke-miterlimit="10" stroke-linecap="round" stroke-linejoin="round"/>
<path d="M26.2292 40.6084L13.8252 46.1408" stroke="white" stroke-width="2" stroke-miterlimit="10" stroke-linecap="round" stroke-linejoin="round"/>
<path d="M28.6322 34.0588L19.3232 29.0078" stroke="white" stroke-width="2" stroke-miterlimit="10" stroke-linecap="round" stroke-linejoin="round"/>
<path d="M114.365 31.8132L113.816 17.7158" stroke="white" stroke-width="2" stroke-miterlimit="10" stroke-linecap="round" stroke-linejoin="round"/>
<path d="M123.182 42.1172L136.512 44.2405" stroke="white" stroke-width="2" stroke-miterlimit="10" stroke-linecap="round" stroke-linejoin="round"/>
<path d="M119.295 36.4009L127.107 29.082" stroke="white" stroke-width="2" stroke-miterlimit="10" stroke-linecap="round" stroke-linejoin="round"/>
</svg>
