<svg width="202" height="184" viewBox="0 0 202 184" fill="none" xmlns="http://www.w3.org/2000/svg">
<path fill-rule="evenodd" clip-rule="evenodd" d="M69.6184 35.5986H63.385C56.3752 35.5986 50.6924 40.9968 50.6924 47.6559V132.057C50.6924 138.715 56.3752 144.114 63.385 144.114H126.849C133.859 144.114 139.542 138.715 139.542 132.057V47.6559C139.542 40.9968 133.859 35.5986 126.849 35.5986H120.39V36.5347V39.5515V41.6272H126.849C130.354 41.6272 133.195 44.3263 133.195 47.6559V132.057C133.195 135.386 130.354 138.085 126.849 138.085H63.385C59.8802 138.085 57.0386 135.386 57.0386 132.057V47.6559C57.0386 44.3263 59.8802 41.6272 63.385 41.6272H69.6184V39.5515V36.5347V35.5986ZM85.4844 41.6272H104.524V39.5515V36.5347V35.5986H85.4844V36.5347V39.5515V41.6272Z" fill="white"/>
<path fill-rule="evenodd" clip-rule="evenodd" d="M69.6191 68.1852C69.6191 66.5204 71.0398 65.1709 72.7923 65.1709H117.217C118.97 65.1709 120.39 66.5204 120.39 68.1852C120.39 69.85 118.97 71.1995 117.217 71.1995H72.7923C71.0398 71.1995 69.6191 69.85 69.6191 68.1852Z" fill="white"/>
<path fill-rule="evenodd" clip-rule="evenodd" d="M69.7324 83.8278C69.7324 82.163 71.1534 80.8135 72.9056 80.8135H117.33C119.083 80.8135 120.504 82.163 120.504 83.8278C120.504 85.4923 119.083 86.8421 117.33 86.8421H72.9056C71.1534 86.8421 69.7324 85.4923 69.7324 83.8278Z" fill="white"/>
<path fill-rule="evenodd" clip-rule="evenodd" d="M69.7324 98.9C69.7324 97.2352 71.1534 95.8857 72.9056 95.8857H117.33C119.083 95.8857 120.504 97.2352 120.504 98.9C120.504 100.565 119.083 101.914 117.33 101.914H72.9056C71.1534 101.914 69.7324 100.565 69.7324 98.9Z" fill="white"/>
<path fill-rule="evenodd" clip-rule="evenodd" d="M69.7324 114.136C69.7324 112.472 71.1534 111.122 72.9056 111.122H98.2912C100.044 111.122 101.464 112.472 101.464 114.136C101.464 115.801 100.044 117.151 98.2912 117.151H72.9056C71.1534 117.151 69.7324 115.801 69.7324 114.136Z" fill="white"/>
<path fill-rule="evenodd" clip-rule="evenodd" d="M41.1732 49.9707C42.9257 49.9707 44.3464 51.3203 44.3464 52.985L44.3464 134.5C44.3464 142.823 51.4498 149.571 60.2122 149.571H120.708C122.46 149.571 123.881 150.921 123.881 152.585C123.881 154.25 122.46 155.6 120.708 155.6H60.2122C47.9448 155.6 38 146.153 38 134.5L38 52.985C38 51.3203 39.4207 49.9707 41.1732 49.9707Z" fill="white"/>
<path fill-rule="evenodd" clip-rule="evenodd" d="M158.468 80.2435H152.122V126.463L155.295 130.482L158.468 126.463V80.2435ZM164.815 128.472L155.295 140.53L145.775 128.472V74.2148H164.815V128.472Z" fill="white"/>
<path fill-rule="evenodd" clip-rule="evenodd" d="M158.468 59.1438H152.122V65.1725H158.468V59.1438ZM152.122 53.1152H158.468C161.973 53.1152 164.815 55.8142 164.815 59.1438V71.2011H145.775V59.1438C145.775 55.8142 148.617 53.1152 152.122 53.1152Z" fill="white"/>
<path fill-rule="evenodd" clip-rule="evenodd" d="M112.457 29C115.086 29 117.217 31.0243 117.217 33.5215V42.5668C117.217 45.064 115.086 47.0883 112.457 47.0883C109.828 47.0883 107.697 45.064 107.697 42.5668V33.5215C107.697 31.0243 109.828 29 112.457 29Z" fill="white"/>
<path fill-rule="evenodd" clip-rule="evenodd" d="M77.5781 29C80.2071 29 82.3379 31.0243 82.3379 33.5215V42.5668C82.3379 45.064 80.2071 47.0883 77.5781 47.0883C74.9495 47.0883 72.8184 45.064 72.8184 42.5668V33.5215C72.8184 31.0243 74.9495 29 77.5781 29Z" fill="white"/>
</svg>
